<?xml version="1.0" encoding="iso-8859-1"?>
<!-- Uploaded to: SVG Repo, www.svgrepo.com, Generator: SVG Repo Mixer Tools -->
<!DOCTYPE svg PUBLIC "-//W3C//DTD SVG 1.1//EN" "http://www.w3.org/Graphics/SVG/1.1/DTD/svg11.dtd">
<svg fill="#000000" version="1.1" id="Capa_1" xmlns="http://www.w3.org/2000/svg" xmlns:xlink="http://www.w3.org/1999/xlink" 
	 width="800px" height="800px" viewBox="0 0 49.336 49.336"
	 xml:space="preserve">
<g>
	<g id="_x39__26_">
		<g>
			<path d="M26.35,28.12c4.902-0.666,7.142-6.773,5.504-10.895c-1.344-3.376-5.056-4.953-8.493-4.522
				c-3.98,0.499-6.38,3.8-6.714,7.603C16.691,25.467,21.415,28.791,26.35,28.12z M22.544,18.16c0.002-0.154,0.053-0.278,0.12-0.383
				c0.141-0.312,0.461-0.509,0.831-0.324c0.018,0.005,0.029,0.013,0.044,0.018c0.005,0.002,0.009,0.001,0.015,0.004
				c0.005,0.004,0.01,0.006,0.016,0.009c0.074,0.028,0.139,0.068,0.194,0.122c1.287,0.794,2.574,1.588,3.861,2.381
				c0.414,0.256,0.6,0.927,0.093,1.22c-1.36,0.787-2.722,1.574-4.082,2.361c-0.428,0.247-1.103,0.038-1.103-0.536
				C22.54,21.408,22.542,19.783,22.544,18.16z"/>
			<path d="M0,4.301v32.532h17.69v6.698h13.349v-6.698h18.297V4.301H0z M44.336,31.833H5V9.301h39.336V31.833z"/>
			<rect x="10.503" y="43.658" width="27.724" height="1.377"/>
		</g>
	</g>
</g>
</svg>